<svg xmlns="http://www.w3.org/2000/svg">
  <defs>
    <symbol id="icon-investor" viewBox="0 0 24 24">
      <path d="M12 11a4 4 0 1 0 0-8 4 4 0 0 0 0 8zm-7 9a7 7 0 0 1 14 0H5z"/>
    </symbol>
    <symbol id="icon-portfolio" viewBox="0 0 24 24">
      <path d="M9 5a1 1 0 0 1 1-1h4a1 1 0 0 1 1 1v1h3a2 2 0 0 1 2 2v10a2 2 0 0 1-2 2H6a2 2 0 0 1-2-2V8a2 2 0 0 1 2-2h3V5zm2 1v1h2V6h-2zM6 8v10h12V8H6z"/>
    </symbol>
    <symbol id="icon-asset" viewBox="0 0 24 24">
      <path d="M2 20h20v2H2v-2zm2-4h4v4H4v-4zm6-6h4v10h-4V10zm6-4h4v14h-4V6z"/>
    </symbol>
    <symbol id="icon-market" viewBox="0 0 24 24">
      <path d="M3 21h18v2H3v-2zM3 7l9-5 9 5v2H3V7zm2 4h14v8H5v-8zm2 2v4h3v-4H7zm4 0v4h3v-4h-3zm4 0v4h3v-4h-3z"/>
    </symbol>
    <symbol id="icon-return" viewBox="0 0 24 24">
      <path d="M16 6l2.29 2.29-4.88 4.88-4-4L2 16.59 3.41 18l6-6 4 4 6.3-6.29L22 12V6h-6z"/>
    </symbol>
    <symbol id="icon-risk" viewBox="0 0 24 24">
      <path d="M12 1L3 5v6c0 5.55 3.84 10.74 9 12 5.16-1.26 9-6.45 9-12V5l-9-4zm-1 7h2v2h-2V8zm0 4h2v4h-2v-4z"/>
    </symbol>
  </defs>
</svg>
